<svg xmlns="http://www.w3.org/2000/svg" viewBox="0 0 200 200" width="200" height="200">
  <!-- 背景圆形 -->
  <circle cx="100" cy="100" r="100" fill="url(#bgGradient5)"/>
  
  <!-- 渐变定义 -->
  <defs>
    <linearGradient id="bgGradient5" x1="0%" y1="0%" x2="100%" y2="100%">
      <stop offset="0%" style="stop-color:#96e6a1;stop-opacity:1" />
      <stop offset="100%" style="stop-color:#d4fc79;stop-opacity:1" />
    </linearGradient>
  </defs>
  
  <!-- 人物头部 -->
  <circle cx="100" cy="76" r="34" fill="#ffd89b"/>
  
  <!-- 眼睛（平和的神情） -->
  <ellipse cx="88" cy="71" rx="3" ry="2" fill="#333"/>
  <ellipse cx="112" cy="71" rx="3" ry="2" fill="#333"/>
  <circle cx="89" cy="70" r="1" fill="#fff"/>
  <circle cx="113" cy="70" r="1" fill="#fff"/>
  
  <!-- 眉毛（平和的弧度） -->
  <path d="M 83 65 Q 88 63 93 65" stroke="#8b4513" stroke-width="1.5" fill="none"/>
  <path d="M 107 65 Q 112 63 117 65" stroke="#8b4513" stroke-width="1.5" fill="none"/>
  
  <!-- 鼻子 -->
  <ellipse cx="100" cy="76" rx="1.5" ry="2.5" fill="#e6c79a"/>
  
  <!-- 嘴巴（智慧的微笑） -->
  <path d="M 94 84 Q 100 87 106 84" stroke="#333" stroke-width="1.5" fill="none"/>
  
  <!-- 头发（成熟稳重） -->
  <path d="M 74 62 Q 87 42 100 45 Q 113 42 126 62 Q 120 52 110 48 Q 100 43 90 48 Q 80 52 74 62" fill="#556b2f"/>
  
  <!-- 服装（自然色调） -->
  <ellipse cx="100" cy="135" rx="48" ry="32" fill="#8fbc8f"/>
  
  <!-- 项链/装饰 -->
  <circle cx="100" cy="105" r="4" fill="#daa520"/>
  <circle cx="94" cy="107" r="2" fill="#daa520"/>
  <circle cx="106" cy="107" r="2" fill="#daa520"/>
  
  <!-- 植物/生长图标 -->
  <g transform="translate(140, 45)">
    <rect x="0" y="15" width="2" height="8" fill="#8b4513"/>
    <ellipse cx="1" cy="10" rx="4" ry="6" fill="#228b22"/>
    <ellipse cx="-2" cy="8" rx="2" ry="3" fill="#32cd32"/>
    <ellipse cx="4" cy="8" rx="2" ry="3" fill="#32cd32"/>
  </g>
  
  <!-- 平衡象征 -->
  <g transform="translate(50, 55)">
    <line x1="0" y1="10" x2="20" y2="10" stroke="#daa520" stroke-width="2"/>
    <circle cx="10" cy="10" r="1" fill="#daa520"/>
    <circle cx="3" cy="10" r="2" fill="#4169e1"/>
    <circle cx="17" cy="10" r="2" fill="#4169e1"/>
  </g>
  
  <!-- 太阳图标（正能量） -->
  <g transform="translate(150, 70)">
    <circle cx="0" cy="0" r="6" fill="#ffd700"/>
    <line x1="-10" y1="0" x2="-8" y2="0" stroke="#ffd700" stroke-width="1"/>
    <line x1="8" y1="0" x2="10" y2="0" stroke="#ffd700" stroke-width="1"/>
    <line x1="0" y1="-10" x2="0" y2="-8" stroke="#ffd700" stroke-width="1"/>
    <line x1="0" y1="8" x2="0" y2="10" stroke="#ffd700" stroke-width="1"/>
    <line x1="-7" y1="-7" x2="-6" y2="-6" stroke="#ffd700" stroke-width="1"/>
    <line x1="6" y1="6" x2="7" y2="7" stroke="#ffd700" stroke-width="1"/>
    <line x1="7" y1="-7" x2="6" y2="-6" stroke="#ffd700" stroke-width="1"/>
    <line x1="-6" y1="6" x2="-7" y2="7" stroke="#ffd700" stroke-width="1"/>
  </g>
  
  <!-- 和谐圆环 -->
  <circle cx="100" cy="76" r="48" fill="none" stroke="#fff" stroke-width="1" opacity="0.4"/>
  <circle cx="100" cy="76" r="42" fill="none" stroke="#fff" stroke-width="0.5" opacity="0.3"/>
  
  <!-- 底部标识 -->
  <text x="100" y="185" text-anchor="middle" font-family="Arial, sans-serif" font-size="12" fill="#556b2f" font-weight="bold">LIFE</text>
</svg> 